<svg xmlns="http://www.w3.org/2000/svg" version="1.1" xmlns:xlink="http://www.w3.org/1999/xlink" xmlns:svgjs="http://svgjs.dev/svgjs" width="100%" height="100%" viewBox="0 0 1000 600"><rect width="1000" height="600" x="0" y="0" fill="white"/><g><circle r="166.66666666666666" cx="303.39054361979163" cy="325.612780312656" fill="BLACK" transform="matrix(0.914251145548137,0,0,0.9142511455481369,0,2.308127823601467)"/><path d="M198.46554528592466 306.7112299436641L198.46554528592466 306.7112299436641Q192.63638017110398 306.7112299436641 188.39436397368496 292.88860573574766Q184.12349052322224 279.0659815278313 184.12349052322224 266.39764744166155L184.12349052322224 266.39764744166155Q184.12349052322224 263.48306488425123 190.55865795195996 259.84705100074916Q196.99382538069767 256.21103711724714 210.09501826252242 253.41188357201148Q223.19621114434716 250.61273002677578 238.5482697635779 250.61273002677578L238.5482697635779 250.61273002677578Q298.1962118048373 250.61273002677578 298.1962118048373 292.167174409656L298.1962118048373 292.167174409656Q298.1962118048373 303.9986481575594 293.3193360404576 312.62696681761577Q288.4136030230342 321.25528547767215 281.57443405168516 325.2087291446545L281.57443405168516 325.2087291446545Q267.63638083159407 332.8847584542699 256.00690785499637 333.08675922557563L256.00690785499637 333.08675922557563L251.24546110279132 333.28875999688125Q251.24546110279132 335.5973402403746 252.28432221236332 340.5607877638853Q253.32318332193535 345.5530925404397 253.32318332193535 349.30453543611634L253.32318332193535 349.30453543611634Q253.32318332193535 352.623119536138 241.98228287577427 354.3834119718017Q230.67023968265687 356.1437044074654 222.3593508060808 356.1437044074654L222.3593508060808 356.1437044074654Q209.6910167199111 356.1437044074654 206.66100515032605 349.9105377500333Q203.6598508337847 343.67737109260133 203.6598508337847 323.5350084681219L203.6598508337847 323.5350084681219Q203.6598508337847 318.7447044628732 221.5224904678145 316.46498147242346L221.5224904678145 316.46498147242346Q228.15965866785785 315.4261203628515 233.67139399919822 312.10753626282985Q239.18312933053858 308.7889521628081 239.18312933053858 302.95978704798745Q239.18312933053858 297.15947918621043 229.83337934439052 297.15947918621043Q220.48362935824247 297.15947918621043 210.2104472746971 301.9209259384154Q199.908407938108 306.7112299436641 198.46554528592466 306.7112299436641ZM231.0742412252682 363.2137314031638L231.0742412252682 363.2137314031638Q245.21429521666494 363.2137314031638 252.68832375497465 366.8497452866658Q260.16235229328436 370.48575917016785 260.16235229328436 381.9132313754599L260.16235229328436 381.9132313754599Q260.16235229328436 400.6127313477559 231.0742412252682 400.6127313477559Q201.98613015725203 400.6127313477559 201.98613015725203 381.9132313754599Q201.98613015725203 363.2137314031638 231.0742412252682 363.2137314031638ZM322.92687766325975 306.7112299436641L322.92687766325975 306.7112299436641Q317.09771254843906 306.7112299436641 312.82683909797635 292.88860573574766Q308.58482290055736 279.0659815278313 308.58482290055736 266.39764744166155L308.58482290055736 266.39764744166155Q308.58482290055736 263.48306488425123 315.019990329295 259.84705100074916Q321.4551577580328 256.21103711724714 334.5563506398575 253.41188357201148Q347.6286862686386 250.61273002677578 363.009602140913 250.61273002677578L363.009602140913 250.61273002677578Q422.6575441821723 250.61273002677578 422.6575441821723 292.167174409656L422.6575441821723 292.167174409656Q422.6575441821723 303.9986481575594 417.751811164749 312.62696681761577Q412.8749354003693 321.25528547767215 406.03576642902027 325.2087291446545L406.03576642902027 325.2087291446545Q392.0977132089292 332.8847584542699 380.4682402323314 333.08675922557563L380.4682402323314 333.08675922557563L375.6779362270827 333.28875999688125Q375.6779362270827 335.5973402403746 376.71679733665474 340.5607877638853Q377.7556584462268 345.5530925404397 377.7556584462268 349.30453543611634L377.7556584462268 349.30453543611634Q377.7556584462268 352.623119536138 366.44361525310933 354.3834119718017Q355.131572059992 356.1437044074654 346.8206831834159 356.1437044074654L346.8206831834159 356.1437044074654Q334.1234918442025 356.1437044074654 331.12233752766116 349.9105377500333Q328.1211832111198 343.67737109260133 328.1211832111198 323.5350084681219L328.1211832111198 323.5350084681219Q328.1211832111198 318.7447044628732 345.9838228451496 316.46498147242346L345.9838228451496 316.46498147242346Q352.6209910451929 315.4261203628515 358.1327263765333 312.10753626282985Q363.6444617078737 308.7889521628081 363.6444617078737 302.95978704798745Q363.6444617078737 297.15947918621043 354.29471172172555 297.15947918621043Q344.9449617355775 297.15947918621043 334.6429223989885 301.9209259384154Q324.3697403154431 306.7112299436641 322.92687766325975 306.7112299436641ZM355.53557360260334 363.2137314031638L355.53557360260334 363.2137314031638Q369.67562759400005 363.2137314031638 377.1496561323097 366.8497452866658Q384.62368467061947 370.48575917016785 384.62368467061947 381.9132313754599L384.62368467061947 381.9132313754599Q384.62368467061947 400.6127313477559 355.53557360260334 400.6127313477559Q326.4474625345871 400.6127313477559 326.4474625345871 381.9132313754599Q326.4474625345871 363.2137314031638 355.53557360260334 363.2137314031638Z " fill="white" transform="matrix(0.914251145548137,0,0,0.9142511455481369,0,2.308127823601467)"/><path d="M644.9508136050737 393.8114305471647Q644.9508136050737 396.06900334599754 632.2912598090866 397.41211627694884Q619.6317060130996 398.7552292079 607.0007290879839 398.7552292079Q594.3411752919968 398.7552292079 590.9405276583118 397.61215437304793Q587.5398800246269 396.4976564090671 587.5398800246269 393.8114305471647L587.5398800246269 393.8114305471647L587.5398800246269 305.33743832961204L558.9344322824529 305.33743832961204Q556.6768594836201 305.33743832961204 555.0479778439558 299.59348728448015Q553.3905193334203 293.820959368477 553.3905193334203 282.39021101995604Q553.3905193334203 270.9880395423063 555.8481302283524 261.8148639926182Q558.3343179941556 252.6702653138014 562.4493873996232 252.6702653138014L562.4493873996232 252.6702653138014L673.7562994433467 252.6702653138014Q676.8426014974473 252.6702653138014 677.9856763322994 258.44279322980447Q679.1001742962803 264.1867442749363 679.1001742962803 275.1031089477739Q679.1001742962803 285.99089674974016 676.8426014974473 295.6784559751118Q674.5850286986145 305.33743832961204 670.669997389246 305.33743832961204L670.669997389246 305.33743832961204L644.9508136050737 305.33743832961204L644.9508136050737 393.8114305471647ZM753.800114753865 398.7552292079L753.800114753865 398.7552292079L708.734389389821 398.7552292079Q698.446715876152 398.7552292079 694.9603376298533 397.3263856643349Q691.445382512683 395.86896524989845 691.445382512683 392.7826631957978L691.445382512683 392.7826631957978L691.445382512683 260.5003279325383Q691.445382512683 250.61273061106758 750.9138507958635 250.61273061106758L750.9138507958635 250.61273061106758Q785.06321148707 250.61273061106758 798.0371108626414 257.1854109114672L798.0371108626414 257.1854109114672Q811.211048334312 263.9867061788372 814.8974646767099 274.47441778860525L814.8974646767099 274.47441778860525Q816.9549993794437 280.64702189680656 816.9549993794437 288.8771607077417L816.9549993794437 288.8771607077417Q816.9549993794437 304.93736213741374 811.496817043025 312.9674628522498Q806.0672115774776 320.96898669621453 799.6659925023057 321.99775404758134L799.6659925023057 321.99775404758134Q809.3535517276773 324.0552887503152 815.7261939319778 331.48527517685386Q822.0988361362781 338.8866847325212 822.0988361362781 356.5757678018574L822.0988361362781 356.5757678018574Q822.0988361362781 377.1511148291953 809.5535898237763 387.038712150666L809.5535898237763 387.038712150666Q798.6372251509388 395.66892715379936 776.2329583878377 397.9264999526323L776.2329583878377 397.9264999526323Q766.7454372585651 398.7552292079 753.800114753865 398.7552292079ZM748.8563160931299 309.0524315428813L754.0001528499643 309.0524315428813Q764.4878644597322 309.0524315428813 764.4878644597322 295.04976481594304L764.4878644597322 295.04976481594304Q764.4878644597322 288.0484314524739 761.7159079852158 284.6763606896602Q758.9439515106997 281.27571305597525 755.4289963935294 281.27571305597525L755.4289963935294 281.27571305597525L748.8563160931299 281.27571305597525L748.8563160931299 309.0524315428813ZM748.8563160931299 340.3155282760863L748.8563160931299 368.0922467629923L754.0001528499643 368.0922467629923Q764.4878644597322 368.0922467629923 764.4878644597322 354.1181569069255L764.4878644597322 354.1181569069255Q764.4878644597322 347.11682354345635 761.7159079852158 343.7161759097713Q758.9439515106997 340.3155282760863 755.4289963935294 340.3155282760863L755.4289963935294 340.3155282760863L748.8563160931299 340.3155282760863ZM939.578352288203 397.21207818084963Q931.3482134772678 399.1553054000983 922.8323059576196 399.8983040427521Q914.2878215671003 400.61272581453466 906.143413368779 400.61272581453466Q898.0275820413292 400.61272581453466 893.5981670562771 400.1840727514651Q889.1687520712253 399.78399655926694 881.9673806116571 398.1265380487314Q874.7660091520888 396.4976564090671 868.8220200108578 393.6113924510655Q862.8494539987557 390.72512849306406 856.1624662148708 385.18121554403126Q849.475478430986 379.60872572412734 844.931755962449 372.0072780723608L844.931755962449 372.0072780723608Q834.444044352681 354.3181950030246 834.444044352681 326.34143842001936L834.444044352681 326.34143842001936Q834.444044352681 307.59501112844487 840.3023028812979 293.1922682093084Q846.1891382807862 278.7895252901719 854.5050077043354 270.9880395423063Q862.8494539987557 263.15797692356944 873.5372037046227 258.44279322980447L873.5372037046227 258.44279322980447Q890.826210581761 250.61273061106758 908.315255554998 250.61273061106758L908.315255554998 250.61273061106758Q933.4057481800016 250.61273061106758 944.3221128528392 254.72780001653516L944.3221128528392 254.72780001653516Q949.2659115135746 256.5852966231698 953.180942822943 260.5003279325383Q957.0673972614402 264.38678237103545 957.0673972614402 271.8167687975741Q957.0673972614402 279.21817835324146 953.4667115316561 290.53461921827727Q949.866025801872 301.8510600833131 943.0933074053733 301.8510600833131L943.0933074053733 301.8510600833131Q941.0357727026394 301.8510600833131 927.8618352309691 298.5647199331132Q914.6878977592985 295.2498029120421 909.9727140655336 295.2498029120421L909.9727140655336 295.2498029120421Q902.7713426059654 295.2498029120421 897.7132364617448 303.2799036268782Q892.6837071883956 311.31000434171426 892.6837071883956 326.1128234530489Q892.6837071883956 340.9442194352549 897.1131221734474 349.1743582461901Q901.5139602876279 357.40449705712524 908.7153317471962 357.40449705712524L908.7153317471962 357.40449705712524Q913.8591685040308 357.40449705712524 927.3474515552855 353.1751201681725Q940.8357346065404 348.974320150091 943.0933074053733 348.974320150091L943.0933074053733 348.974320150091Q949.4659496096738 348.974320150091 953.0666353394579 360.690837207325Q956.667321069242 372.4073542645591 956.667321069242 379.60872572412734Q956.667321069242 386.8100971836956 952.23790608419 391.0394740726483Q947.8084910991381 395.26885096160106 939.578352288203 397.21207818084963Z " fill="#e94560" transform="matrix(0.914251145548137,0,0,0.9142511455481369,0,2.308127823601467)"/></g></svg>